# xmcd
# 
# Track frame offsets:
#     150
#     13566
#     27427
#     40731
#     54370
#     67897
#     81981
#     94895
#     108143
#     122395
#     136424
#     149895
#     167267
#     181463
#     192872
#     206566
#     219870
#     234735
#     248708
#     262012
#     276152
#     289066
#     302927
#     316566
#     330483
# 
# Disc length: 4581
# 
# Revision: 2
# Processed by: cddbd v1.5.2PL0 Copyright (c) Steve Scherf et al.
# Submitted via: fre:ac v1.0.31
# 
DISCID=6111e319
DTITLE=Various Artist - The Rough Guide toThe Roots of Country Music: Reborn and Remastered
DYEAR=2019
DGENRE=Country
TTITLE0=Uncle Dave Macon and Sam McGee - Way Down The Old Plank Road
TTITLE1=Charlie Poole and The North Carolina Ramblers - Leaving Home
TTITLE2=Jimmie Rodgers - Somewhere Down Below The Dixon Line
TTITLE3=J.P. Nester - Train On The Island
TTITLE4=Darby and Tarlton - Sweet Sarah Blues
TTITLE5=Dock Boggs - Old Rub Alcohol Blues
TTITLE6=East Texas Serenaders - Acorn Stomp
TTITLE7=Clarence Ashley - The Coo Coo Bird
TTITLE8=Carter Family - Wildwood Flower
TTITLE9=Tenneva Ramblers - The Longest Train I Ever saw
TTITLE10=Earl Johnson and His Dixie Entertainers - Ain't Nobody's Business
TTITLE11=B.F. Shelton - Darling Cora
TTITLE12=Ernest V. Stoneman and The Sweet Brothers - John Hardy
TTITLE13=Cliff Carlisle - Chicken Roost Blues
TTITLE14=Eck Robertson and Family - Texas Wagoner
TTITLE15=Ray Brothers - Got The Jake Leg Too
TTITLE16=Fruit Jar Guzzlers - Stack-O-Lee
TTITLE17=Wilmer Watts and The Lonely Eagles - Sleepy Desert
TTITLE18=Gid Tanner and His Skillet Lickers - It Ain't Gonna Rain No Mo'
TTITLE19=Burnett and Rutherford - Curly Headed Woman
TTITLE20=Fiddlin' Doc Roberts Trio - Cumberland Blues
TTITLE21=Lowe Stokes - Billy In The Lowground
TTITLE22=Buell Kazee - The Orphan Girl
TTITLE23=Leake County Revelers - Leake County Blues
TTITLE24=Fiddlin' John Carson and His Virginia Reelers - Gonna Swing On The Golden Gate
EXTD=
EXTT0=
EXTT1=
EXTT2=
EXTT3=
EXTT4=
EXTT5=
EXTT6=
EXTT7=
EXTT8=
EXTT9=
EXTT10=
EXTT11=
EXTT12=
EXTT13=
EXTT14=
EXTT15=
EXTT16=
EXTT17=
EXTT18=
EXTT19=
EXTT20=
EXTT21=
EXTT22=
EXTT23=
EXTT24=
PLAYORDER=
